<?xml version="1.0" encoding="UTF-8" standalone="no"?>
<!-- Created with Inkscape (http://www.inkscape.org/) -->

<svg
   version="1.1"
   id="svg2"
   width="2666.6667"
   height="2666.6667"
   viewBox="0 0 2666.6667 2666.6667"
   sodipodi:docname="main file ai 10.ai"
   xmlns:inkscape="http://www.inkscape.org/namespaces/inkscape"
   xmlns:sodipodi="http://sodipodi.sourceforge.net/DTD/sodipodi-0.dtd"
   xmlns="http://www.w3.org/2000/svg"
   xmlns:svg="http://www.w3.org/2000/svg">
  <defs
     id="defs6">
    <clipPath
       clipPathUnits="userSpaceOnUse"
       id="clipPath16">
      <path
         d="M 0,2000 H 2000 V 0 H 0 Z"
         id="path14" />
    </clipPath>
  </defs>
  <sodipodi:namedview
     id="namedview4"
     pagecolor="#ffffff"
     bordercolor="#000000"
     borderopacity="0.25"
     inkscape:showpageshadow="2"
     inkscape:pageopacity="0.0"
     inkscape:pagecheckerboard="0"
     inkscape:deskcolor="#d1d1d1" />
  <g
     id="g8"
     inkscape:groupmode="layer"
     inkscape:label="main file ai 10"
     transform="matrix(1.3333333,0,0,-1.3333333,0,2666.6667)">
    <g
       id="g10">
      <g
         id="g12"
         clip-path="url(#clipPath16)">
        <g
           id="g18"
           transform="translate(1491.6016,909.4668)">
          <path
             d="M 0,0 H -63.334 L 11.978,509.291 -490.569,643.793 -993.117,509.291 -917.806,0 h -59.984 l -96.192,-282.688 33.343,5.183 c 90.477,14.065 181.444,24.822 270.501,31.993 l 279.569,-216.221 279.607,216.252 c 89.086,-7.171 180.028,-17.938 270.456,-32.024 l 32.904,-5.126 z"
             style="fill:#ffffff;fill-opacity:1;fill-rule:nonzero;stroke:none"
             id="path20" />
        </g>
        <g
           id="g22"
           transform="translate(1001.0322,1532.1162)">
          <path
             d="M 0,0 -479.68,-128.381 -386.312,-759.784 0,-1058.563 l 386.311,298.779 93.368,631.403 z"
             style="fill:#ff7400;fill-opacity:1;fill-rule:nonzero;stroke:none"
             id="path24" />
        </g>
        <g
           id="g26"
           transform="translate(636.436,785.0449)">
          <path
             d="M 0,0 -88.949,601.521 364.596,722.907 818.141,601.521 729.191,0 364.596,-281.983 Z"
             style="fill:#ffffff;fill-opacity:1;fill-rule:nonzero;stroke:none"
             id="path28" />
        </g>
        <g
           id="g30"
           transform="translate(658.1523,797.7588)">
          <path
             d="M 0,0 -84.531,571.638 342.88,686.03 770.29,571.638 685.76,0 342.88,-265.188 Z"
             style="fill:#ffffff;fill-opacity:1;fill-rule:nonzero;stroke:none"
             id="path32" />
        </g>
        <g
           id="g34"
           transform="translate(679.8682,810.4727)">
          <path
             d="M 0,0 -80.112,541.754 321.164,649.152 722.439,541.754 642.328,0 321.164,-248.393 Z"
             style="fill:#ff7400;fill-opacity:1;fill-rule:nonzero;stroke:none"
             id="path36" />
        </g>
        <g
           id="g38"
           transform="translate(986.8306,1355.4961)">
          <path
             d="M 0,0 -82.709,-249.861 0,-406.849 h -95.968 l -46.721,89.28 v -89.28 h -85.867 l 0.332,346.271 85.565,22.817 -0.03,-122.822 44.523,135.372 z"
             style="fill:#ffffff;fill-opacity:1;fill-rule:nonzero;stroke:none"
             id="path40" />
        </g>
        <g
           id="g42"
           transform="translate(1101.0996,948.6475)">
          <path
             d="m 0,0 h 56.823 c 11.779,0 22.937,2.097 33.463,6.292 10.516,4.194 19.671,9.98 27.464,17.377 7.783,7.387 13.89,15.972 18.31,25.764 4.419,9.784 6.629,20.27 6.629,31.458 v 54.526 H 56.823 V 81.489 H 0 l -0.234,214.584 57.057,-11.784 v -53.927 h 85.866 v 54.282 c 0,11.131 -2.21,21.674 -6.629,31.616 -4.42,9.943 -10.527,18.594 -18.31,25.953 -7.793,7.359 -16.948,13.125 -27.464,17.301 l -90.52,24.405 -85.632,22.93 V 304.824 80.891 0.276 Z"
             style="fill:#ffffff;fill-opacity:1;fill-rule:nonzero;stroke:none"
             id="path44" />
        </g>
        <g
           id="g46"
           transform="translate(1554.2393,652.1436)">
          <path
             d="m 0,0 c -372.668,58.051 -732.972,58.051 -1106.414,0 26.87,78.967 53.74,157.933 80.61,236.898 H -77.449 C -51.633,157.933 -25.816,78.966 0,0"
             style="fill:#ff7400;fill-opacity:1;fill-rule:nonzero;stroke:none"
             id="path48" />
        </g>
        <g
           id="g50"
           transform="translate(617.7935,860.1777)">
          <path
             d="m 0,0 c -18.294,-33.467 -37.158,-67.516 -56.611,-102.208 3.67,-20.501 7.683,-40.639 12.027,-60.453 -11.849,-1.284 -23.727,-2.621 -35.633,-4.01 -2.177,11.471 -4.242,23.056 -6.194,34.761 -3.746,-12.276 -7.492,-24.55 -11.238,-36.826 -10.706,-1.287 -21.436,-2.617 -32.194,-3.988 18.469,57.069 36.935,114.138 55.398,171.206 9.335,0.207 18.666,0.408 27.993,0.602 -6.733,-22.08 -13.467,-44.158 -20.202,-66.238 12.741,22.466 25.231,44.657 37.476,66.591 C -19.448,-0.369 -9.722,-0.182 0,0"
             style="fill:#ffffff;fill-opacity:1;fill-rule:nonzero;stroke:none"
             id="path52" />
        </g>
        <g
           id="g54"
           transform="translate(701.2617,861.5645)">
          <path
             d="m 0,0 c -11.218,-51.615 -22.446,-103.229 -33.685,-154.844 -10.44,-0.901 -20.899,-1.843 -31.377,-2.827 4.953,20.919 9.906,41.839 14.855,62.758 -6.626,-0.431 -13.257,-0.872 -19.895,-1.327 -5.268,-21.146 -10.538,-42.293 -15.81,-63.439 -10.525,-1.039 -21.071,-2.12 -31.638,-3.242 14.447,53.901 28.887,107.802 43.319,161.703 9.306,0.17 18.608,0.332 27.907,0.489 -5.281,-21.225 -10.564,-42.45 -15.848,-63.674 6.476,0.338 12.948,0.667 19.416,0.986 4.964,20.997 9.927,41.993 14.889,62.99 C -18.575,-0.278 -9.286,-0.136 0,0"
             style="fill:#ffffff;fill-opacity:1;fill-rule:nonzero;stroke:none"
             id="path56" />
        </g>
        <g
           id="g58"
           transform="translate(803.7534,862.8096)">
          <path
             d="m 0,0 c -7.221,-49.274 -14.451,-98.55 -21.69,-147.824 -10.297,-0.595 -20.606,-1.232 -30.928,-1.909 3.172,19.074 6.344,38.149 9.514,57.224 -9.769,-19.52 -19.73,-39.199 -29.889,-59.053 -0.152,-0.01 -0.304,-0.02 -0.456,-0.032 -3.223,18.896 -6.263,37.931 -9.114,57.122 -3.716,-19.39 -7.434,-38.781 -11.152,-58.172 -10.382,-0.788 -20.779,-1.617 -31.193,-2.488 10.827,51.344 21.643,102.688 32.45,154.03 9.282,0.132 18.562,0.257 27.84,0.376 2.456,-19.61 5.107,-39.051 7.95,-58.341 9.818,19.756 19.44,39.343 28.868,58.78 C -18.531,-0.186 -9.265,-0.09 0,0"
             style="fill:#ffffff;fill-opacity:1;fill-rule:nonzero;stroke:none"
             id="path60" />
        </g>
        <g
           id="g62"
           transform="translate(868.9326,747.8701)">
          <path
             d="m 0,0 c -0.902,-9.646 -1.805,-19.292 -2.708,-28.937 -24.071,-0.865 -48.189,-1.959 -72.36,-3.285 6.846,49.087 13.684,98.175 20.514,147.262 21.791,0.199 43.574,0.364 65.349,0.495 -0.9,-9.646 -1.8,-19.292 -2.701,-28.937 -12.783,-0.16 -25.572,-0.344 -38.365,-0.552 -1.158,-9.671 -2.316,-19.343 -3.475,-29.014 13.06,0.318 26.113,0.599 39.158,0.842 C 4.51,48.229 3.609,38.582 2.707,28.937 -10.603,28.609 -23.921,28.23 -37.25,27.803 -38.418,18.06 -39.588,8.316 -40.756,-1.427 -27.158,-0.889 -13.573,-0.413 0,0"
             style="fill:#ffffff;fill-opacity:1;fill-rule:nonzero;stroke:none"
             id="path64" />
        </g>
        <g
           id="g66"
           transform="translate(932.6797,796.9023)">
          <path
             d="M 0,0 C 0.68,12.706 1.36,25.413 2.041,38.12 -4.205,38.078 -10.451,38.029 -16.699,37.977 -17.546,25.235 -18.393,12.495 -19.24,-0.245 -12.826,-0.153 -6.413,-0.072 0,0 M 30.351,38.271 C 29.921,25.6 29.491,12.928 29.062,0.258 c -0.205,-6.025 -2.149,-11.493 -5.848,-16.426 -3.726,-4.935 -8.607,-8.414 -14.637,-10.448 5.824,-16.4 11.792,-32.78 17.904,-49.155 -10.86,-0.123 -21.724,-0.292 -32.59,-0.509 -5.202,14.694 -10.287,29.406 -15.254,44.147 -0.99,-14.851 -1.979,-29.704 -2.969,-44.556 -10.203,-0.252 -20.413,-0.547 -30.627,-0.884 4.143,48.046 8.282,96.091 12.415,144.136 15.374,0.083 30.746,0.151 46.116,0.2 3.806,0.012 7.378,-0.713 10.712,-2.177 3.339,-1.463 6.22,-3.486 8.647,-6.07 2.431,-2.588 4.308,-5.629 5.628,-9.121 1.325,-3.498 1.923,-7.206 1.792,-11.124"
             style="fill:#ffffff;fill-opacity:1;fill-rule:nonzero;stroke:none"
             id="path68" />
        </g>
        <g
           id="g70"
           transform="translate(1050.9092,768.5225)">
          <path
             d="m 0,0 c 0.165,-6.374 0.331,-12.749 0.496,-19.124 0.102,-3.924 -0.579,-7.592 -2.046,-11.005 -1.475,-3.416 -3.561,-6.4 -6.259,-8.96 -2.711,-2.563 -5.92,-4.557 -9.633,-5.995 -3.721,-1.44 -7.685,-2.143 -11.872,-2.121 -6.738,0.036 -13.475,0.054 -20.212,0.054 -4.192,0 -8.154,0.726 -11.87,2.183 -3.715,1.457 -6.926,3.466 -9.63,6.04 -2.7,2.571 -4.784,5.566 -6.254,8.983 -1.466,3.416 -2.146,7.083 -2.041,11.001 0.754,28.544 1.508,57.088 2.261,85.632 0.103,3.915 0.927,7.627 2.462,11.126 1.529,3.499 3.585,6.546 6.177,9.139 2.578,2.591 5.581,4.622 9.013,6.091 3.421,1.469 7.034,2.209 10.843,2.206 6.119,0 12.238,-0.003 18.357,-0.008 3.807,-0.004 7.42,-0.74 10.842,-2.207 3.427,-1.468 6.428,-3.494 9.01,-6.08 2.585,-2.588 4.643,-5.625 6.171,-9.116 1.533,-3.492 2.354,-7.193 2.456,-11.097 0.164,-6.346 0.328,-12.692 0.492,-19.038 -9.559,0.059 -19.117,0.101 -28.674,0.125 -0.04,6.293 -0.079,12.588 -0.118,18.881 -6.243,0.012 -12.486,0.018 -18.729,0.018 -0.192,-28.453 -0.384,-56.905 -0.575,-85.357 6.613,0 13.226,-0.015 19.839,-0.045 -0.04,6.293 -0.079,12.588 -0.119,18.881 C -19.743,0.168 -9.872,0.099 0,0"
             style="fill:#ffffff;fill-opacity:1;fill-rule:nonzero;stroke:none"
             id="path72" />
        </g>
        <g
           id="g74"
           transform="translate(1112.0898,748.4922)">
          <path
             d="m 0,0 c -1.888,28.739 -3.772,57.478 -5.655,86.216 -6.248,0.065 -12.496,0.124 -18.743,0.178 1.505,-28.645 3.013,-57.29 4.522,-85.935 C -13.253,0.321 -6.628,0.168 0,0 m 22.679,85.882 c 2.467,-28.986 4.934,-57.973 7.405,-86.96 0.342,-3.982 -0.119,-7.683 -1.387,-11.11 -1.272,-3.429 -3.183,-6.405 -5.734,-8.932 -2.563,-2.532 -5.662,-4.471 -9.296,-5.836 -3.646,-1.364 -7.572,-1.978 -11.774,-1.854 -6.754,0.204 -13.505,0.387 -20.255,0.553 -4.228,0.103 -8.231,0.933 -11.995,2.487 -3.76,1.555 -7.081,3.651 -9.964,6.3 -2.872,2.645 -5.154,5.699 -6.842,9.159 -1.684,3.461 -2.586,7.152 -2.716,11.08 -0.945,28.608 -1.889,57.217 -2.832,85.826 -0.129,3.926 0.477,7.636 1.817,11.138 1.331,3.498 3.224,6.539 5.678,9.129 2.445,2.586 5.314,4.612 8.617,6.075 3.293,1.464 6.854,2.188 10.692,2.172 6.122,-0.025 12.243,-0.052 18.365,-0.084 3.807,-0.019 7.466,-0.779 10.98,-2.286 3.516,-1.508 6.642,-3.582 9.38,-6.224 2.746,-2.645 4.993,-5.753 6.729,-9.315 1.748,-3.565 2.793,-7.343 3.132,-11.318"
             style="fill:#ffffff;fill-opacity:1;fill-rule:nonzero;stroke:none"
             id="path76" />
        </g>
        <g
           id="g78"
           transform="translate(1203.7725,745.2168)">
          <path
             d="m 0,0 c -3.678,29.408 -7.353,58.816 -11.025,88.226 -6.262,0.118 -12.523,0.231 -18.782,0.337 3.275,-29.229 6.552,-58.459 9.831,-87.688 C -13.32,0.599 -6.661,0.307 0,0 m 17.38,87.647 c 4.296,-29.787 8.596,-59.574 12.898,-89.361 0.593,-4.087 0.364,-7.884 -0.694,-11.366 -1.063,-3.488 -2.799,-6.496 -5.203,-9.029 -2.417,-2.536 -5.408,-4.451 -8.977,-5.759 -3.577,-1.31 -7.487,-1.842 -11.714,-1.613 -17.06,0.928 -34.093,1.742 -51.105,2.441 -4.486,48.371 -8.967,96.743 -13.439,145.114 15.379,-0.106 30.763,-0.228 46.15,-0.368 3.811,-0.034 7.521,-0.828 11.132,-2.387 3.615,-1.557 6.873,-3.7 9.78,-6.426 2.915,-2.731 5.355,-5.928 7.323,-9.6 1.974,-3.673 3.26,-7.56 3.849,-11.646"
             style="fill:#ffffff;fill-opacity:1;fill-rule:nonzero;stroke:none"
             id="path80" />
        </g>
        <g
           id="g82"
           transform="translate(1316.7422,738.6094)">
          <path
             d="m 0,0 c 2.022,-10.279 4.046,-20.558 6.07,-30.836 -24.455,2.042 -48.825,3.855 -73.12,5.437 -7.547,49.777 -15.086,99.555 -22.615,149.332 21.81,-0.239 43.631,-0.512 65.465,-0.82 2.017,-10.278 4.037,-20.556 6.055,-30.835 -12.858,0.377 -25.708,0.73 -38.548,1.057 1.709,-10.017 3.418,-20.034 5.127,-30.052 13.131,-0.5 26.277,-1.038 39.436,-1.613 2.021,-10.278 4.042,-20.557 6.064,-30.835 -13.463,0.775 -26.907,1.5 -40.332,2.174 1.723,-10.092 3.447,-20.184 5.171,-30.276 C -27.507,1.886 -13.767,0.975 0,0"
             style="fill:#ffffff;fill-opacity:1;fill-rule:nonzero;stroke:none"
             id="path84" />
        </g>
        <g
           id="g86"
           transform="translate(1366.7402,786.665)">
          <path
             d="m 0,0 c -3.322,14.119 -6.643,28.238 -9.963,42.355 -6.31,0.221 -12.619,0.435 -18.925,0.644 3.111,-13.968 6.22,-27.935 9.331,-41.902 C -13.042,0.741 -6.523,0.376 0,0 m 18.678,41.317 c 3.648,-14.362 7.298,-28.725 10.946,-43.088 1.735,-6.827 1.511,-12.902 -0.701,-18.181 -2.239,-5.283 -6.136,-8.781 -11.688,-10.521 11.22,-18.932 22.653,-38.086 34.299,-57.474 -11.249,1.194 -22.473,2.342 -33.676,3.441 -10.041,17.055 -19.915,33.934 -29.625,50.646 3.629,-16.283 7.26,-32.565 10.891,-48.847 -10.464,0.982 -20.909,1.924 -31.338,2.822 -10.524,51.598 -21.039,103.196 -31.543,154.793 15.43,-0.225 30.866,-0.468 46.313,-0.727 3.826,-0.064 7.647,-0.946 11.469,-2.66 3.826,-1.711 7.378,-4.06 10.649,-7.038 3.281,-2.983 6.152,-6.478 8.609,-10.484 2.467,-4.007 4.269,-8.24 5.395,-12.682"
             style="fill:#ffffff;fill-opacity:1;fill-rule:nonzero;stroke:none"
             id="path88" />
        </g>
        <g
           id="g90"
           transform="translate(1499.9541,734.6055)">
          <path
             d="m 0,0 c 1.331,-4.287 2.66,-8.573 3.99,-12.859 1.459,-4.709 2.031,-9.077 1.697,-13.08 -0.339,-4.007 -1.483,-7.384 -3.431,-10.126 -1.961,-2.747 -4.646,-4.742 -8.046,-6.007 -3.41,-1.264 -7.324,-1.621 -11.72,-1.092 -7.141,0.862 -14.273,1.705 -21.394,2.529 -4.381,0.505 -8.754,1.83 -13.113,3.953 -4.348,2.122 -8.353,4.816 -12.007,8.078 -3.645,3.258 -6.791,6.956 -9.45,11.096 -2.65,4.138 -4.551,8.428 -5.711,12.877 -1.885,7.235 -3.771,14.468 -5.657,21.701 10.16,-0.824 20.337,-1.678 30.529,-2.562 2.046,-7.32 4.091,-14.64 6.136,-21.959 6.945,-0.685 13.897,-1.384 20.858,-2.1 -1.082,3.708 -2.163,7.415 -3.245,11.122 -0.145,0.494 -0.289,0.99 -0.433,1.484 -19.501,18.94 -38.531,37.334 -57.115,55.245 -3.263,3.192 -6.033,6.698 -8.309,10.524 -2.269,3.824 -3.921,7.726 -4.962,11.72 -1.082,4.152 -2.164,8.304 -3.245,12.456 -1.163,4.468 -1.533,8.672 -1.114,12.626 0.411,3.95 1.499,7.378 3.269,10.285 1.758,2.903 4.124,5.174 7.098,6.797 2.963,1.624 6.362,2.404 10.199,2.329 6.235,-0.124 12.47,-0.251 18.708,-0.381 3.837,-0.081 7.727,-1.019 11.684,-2.845 3.959,-1.823 7.69,-4.315 11.187,-7.479 3.509,-3.166 6.644,-6.878 9.404,-11.125 2.767,-4.251 4.886,-8.74 6.346,-13.443 l 7.04,-22.694 c -9.801,0.594 -19.591,1.169 -29.37,1.728 -2.163,7.415 -4.326,14.829 -6.488,22.245 -6.42,0.276 -12.835,0.546 -19.247,0.811 1.181,-4.229 2.361,-8.459 3.542,-12.688 18.693,-18.075 37.845,-36.649 57.481,-55.787 3.513,-3.4 6.552,-7.098 9.098,-11.085 C -3.236,8.305 -1.303,4.198 0,0"
             style="fill:#ffffff;fill-opacity:1;fill-rule:nonzero;stroke:none"
             id="path92" />
        </g>
      </g>
    </g>
  </g>
</svg>
